<svg xmlns="http://www.w3.org/2000/svg" viewBox="0 0 21.71 33.25">
  <defs>
    <style>.kameo-1{fill:#9c9b9b;}.kameo-2{fill:#e62b5a;}</style>
  </defs>
  <title>Fichier 1</title>
  <g id="Calque_2" data-name="Calque 2">
    <g id="Calque_1-2" data-name="Calque 1">
      <path class="kameo-1"
            d="M.1,22.62h3v3H.1Zm3.79,0h3v3h-3ZM.1,26.42h3v3H.1Zm3.79,0h3v3h-3Zm3.8,0h3v3h-3Zm-3.8,3.79h3v3h-3Zm3.8,0h3v3h-3Z"/>
      <path class="kameo-2"
            d="M18.81,3.12a10.65,10.65,0,0,0-8-3.12A10.64,10.64,0,0,0,2.9,3.12,10.46,10.46,0,0,0,0,10.75v9.92H4.3V10.75A6.84,6.84,0,0,1,5.85,6.08a6.3,6.3,0,0,1,5-2.21,6.3,6.3,0,0,1,5,2.21,6.89,6.89,0,0,1,1.55,4.67V22.57a6.86,6.86,0,0,1-1.55,4.66,6,6,0,0,1-3.23,2v4a10.2,10.2,0,0,0,6.18-3,10.47,10.47,0,0,0,2.9-7.63V10.75A10.41,10.41,0,0,0,18.81,3.12Z"/>
    </g>
  </g>
</svg>
