<svg xmlns="http://www.w3.org/2000/svg" viewBox="0 0 21.71 33.32">
  <defs>
    <style>.timeo-1{fill:#d9d9d9;}.timeo-2{fill:#9c9b9b;}.timeo-3{fill:#f29100;}</style>
  </defs>
  <title>Fichier 3</title>
  <g id="Calque_2" data-name="Calque 2">
    <g id="Calque_1-2" data-name="Calque 1">
      <path class="timeo-1"
            d="M0,22.57V10.75A10.46,10.46,0,0,1,2.9,3.12a10.64,10.64,0,0,1,8-3.12,10.65,10.65,0,0,1,8,3.12,10.41,10.41,0,0,1,2.9,7.63V22.57a10.47,10.47,0,0,1-2.9,7.63,10.65,10.65,0,0,1-8,3.12A10.64,10.64,0,0,1,2.9,30.2,10.47,10.47,0,0,1,0,22.57Zm4.3,0a6.81,6.81,0,0,0,1.55,4.66,6.27,6.27,0,0,0,5,2.22,6.28,6.28,0,0,0,5-2.22,6.86,6.86,0,0,0,1.55-4.66V10.75a6.89,6.89,0,0,0-1.55-4.67,6.3,6.3,0,0,0-5-2.21,6.3,6.3,0,0,0-5,2.21A6.84,6.84,0,0,0,4.3,10.75Z"/>
      <polygon class="timeo-2"
               points="15.6 20.41 11.37 16.17 11.37 10.18 8.68 10.18 8.68 17.28 8.68 17.28 13.7 22.31 15.6 20.41"/>
      <path class="timeo-3"
            d="M15.86,27.23a6.28,6.28,0,0,1-5,2.22,6.27,6.27,0,0,1-5-2.22A6.81,6.81,0,0,1,4.3,22.57V10.75A6.84,6.84,0,0,1,5.85,6.08a6.13,6.13,0,0,1,4-2.14V0A10.37,10.37,0,0,0,2.9,3.12,10.46,10.46,0,0,0,0,10.75V22.57A10.47,10.47,0,0,0,2.9,30.2a10.64,10.64,0,0,0,8,3.12,10.65,10.65,0,0,0,8-3.12,9.58,9.58,0,0,0,1.52-2l-3.28-3.08A6,6,0,0,1,15.86,27.23Z"/>
    </g>
  </g>
</svg>
