
<svg width="117px" height="34px" viewBox="0 0 117 34" version="1.1" xmlns="http://www.w3.org/2000/svg">
  <g id="Symbols" stroke="none" stroke-width="1" fill="none" fill-rule="evenodd">
    <g id="timeo" transform="translate(-1.000000, -3.000000)">
      <path d="M1,25.57 L1,13.75 C0.893472793,10.9188825 1.93991985,8.16564421 3.9,6.12 C6.00996846,4.00235 8.91344566,2.8699939 11.9,3 C14.8863475,2.87124176 17.7893389,4.00340843 19.9,6.12 C21.8650563,8.16249563 22.9123385,10.917931 22.8,13.75 L22.8,25.57 C22.9053728,28.4009278 21.8590911,31.1537308 19.9,33.2 C17.7893389,35.3165916 14.8863475,36.4487582 11.9,36.32 C8.91344566,36.4500061 6.00996846,35.31765 3.9,33.2 C1.94090888,31.1537308 0.894627239,28.4009278 1,25.57 Z M5.3,25.57 C5.21909804,27.2620497 5.77173026,28.9235117 6.85,30.23 C8.08892765,31.6964177 9.93136308,32.514459 11.85,32.45 C13.7683463,32.5129669 15.6101604,31.6952015 16.85,30.23 C17.9240241,28.9211655 18.4760968,27.2613854 18.4,25.57 L18.4,13.75 C18.4757394,12.0556159 17.9238506,10.3928285 16.85,9.08 C15.6064061,7.62094012 13.7661103,6.80752938 11.85,6.87 C9.93388966,6.80752938 8.09359386,7.62094012 6.85,9.08 C5.77192449,10.3904999 5.21948185,12.0549561 5.3,13.75 L5.3,25.57 Z" id="Shape" fill="#D9D9D9" fill-rule="nonzero"></path>
      <polygon id="Shape" fill="#9C9B9B" fill-rule="nonzero" points="16.6 23.41 12.37 19.17 12.37 13.18 9.68 13.18 9.68 20.28 9.68 20.28 14.7 25.31"></polygon>
      <path d="M16.86,30.23 C15.6201604,31.6952015 13.7783463,32.5129669 11.86,32.45 C9.94136308,32.514459 8.09892765,31.6964177 6.86,30.23 C5.77813743,28.9249643 5.2218898,27.2633528 5.3,25.57 L5.3,13.75 C5.21948185,12.0549561 5.77192449,10.3904999 6.85,9.08 C7.86061304,7.88139715 9.29206467,7.11557053 10.85,6.94 L10.85,3 C8.22139173,3.120557 5.73691312,4.23589129 3.9,6.12 C1.93991985,8.16564421 0.893472793,10.9188825 1,13.75 L1,25.57 C0.894627239,28.4009278 1.94090888,31.1537308 3.9,33.2 C6.00996846,35.31765 8.91344566,36.4500061 11.9,36.32 C14.8863475,36.4487582 17.7893389,35.3165916 19.9,33.2 C20.4922554,32.6029397 21.0033146,31.9304934 21.42,31.2 L18.14,28.12 C17.8641515,28.9044302 17.4282659,29.6229604 16.86,30.23 Z" id="Shape" fill="#F29100" fill-rule="nonzero"></path>
      <text id="Timeo" font-family="HelveticaNeue-Bold, Helvetica Neue" font-size="32" font-weight="bold" fill="#D9D9D9">
        <tspan x="24.14" y="31">Timeo</tspan>
      </text>
    </g>
  </g>
</svg>
